<?xml version="1.0" encoding="utf-8"?>
<!-- Generator: Adobe Illustrator 16.0.0, SVG Export Plug-In . SVG Version: 6.00 Build 0)  -->
<!DOCTYPE svg PUBLIC "-//W3C//DTD SVG 1.1//EN" "http://www.w3.org/Graphics/SVG/1.1/DTD/svg11.dtd">
<svg version="1.1" id="Layer_1" xmlns="http://www.w3.org/2000/svg" xmlns:xlink="http://www.w3.org/1999/xlink" x="0px" y="0px"
	 width="49.875px" height="6px" viewBox="-19.5 2 49.875 6" enable-background="new -19.5 2 49.875 6" xml:space="preserve">
<polygon fill="#231F20" points="-8.817,6.355 -8.817,7.399 -10.979,7.399 -10.979,2.519 -10.181,2.519 -10.181,2.175 -11.356,2.175 
	-11.356,7.399 -12.137,7.399 -12.137,7.744 -8.448,7.744 -8.448,6.355 "/>
<polygon fill="#231F20" points="-17.638,2.213 -17.638,2.558 -16.935,2.558 -18.756,7.438 -19.421,7.438 -19.421,7.782 
	-17.605,7.782 -17.605,7.438 -18.358,7.438 -16.595,2.688 -14.848,7.438 -15.584,7.438 -15.584,7.782 -13.769,7.782 -13.769,7.438 
	-14.443,7.438 -16.255,2.558 -15.56,2.558 -15.56,2.213 "/>
<path fill="#231F20" d="M2.804,7.52c-0.638,0-1.197-0.238-1.616-0.639L4.67,3.398C4.995,3.829,5.186,4.381,5.186,5
	C5.186,6.437,4.16,7.52,2.804,7.52 M0.934,6.599C0.611,6.17,0.42,5.617,0.42,5c0-1.438,1.025-2.523,2.384-2.523
	c0.635,0,1.194,0.239,1.614,0.641L0.934,6.599z M4.927,3.142l0.524-0.525L5.185,2.35L4.667,2.868
	C4.179,2.41,3.528,2.131,2.804,2.131C1.25,2.131,0.033,3.392,0.033,5c0,0.714,0.242,1.359,0.646,1.856L0.153,7.38l0.268,0.267
	L0.938,7.13c0.49,0.458,1.139,0.735,1.866,0.735c1.552,0,2.768-1.259,2.768-2.866C5.571,4.285,5.33,3.639,4.927,3.142"/>
<path fill="#231F20" d="M-4.081,5.195v0.346h1.742v0.348h-1.742v0.336h1.742v0.606C-2.918,7.289-3.55,7.52-4.22,7.52
	c-1.343,0-2.317-1.032-2.317-2.455c0-1.495,1.015-2.58,2.416-2.58c0.659,0,1.189,0.236,1.468,0.514h0.472
	C-2.47,2.553-3.186,2.131-4.113,2.131c-1.597,0.009-2.802,1.27-2.802,2.934c0,1.837,1.352,2.8,2.687,2.8
	c0.704,0,1.292-0.191,1.889-0.616v0.533h0.371V5.195H-4.081z"/>
<polygon fill="#231F20" points="15.19,2.213 15.19,2.558 15.886,2.558 14.074,7.438 13.399,7.438 13.399,7.783 15.216,7.783 
	15.216,7.438 14.479,7.438 16.227,2.688 17.988,7.438 17.236,7.438 17.236,7.783 19.052,7.783 19.052,7.438 18.387,7.438 
	16.565,2.559 17.269,2.559 17.269,2.213 "/>
<polygon fill="#231F20" points="22.966,2.16 22.966,2.505 23.718,2.505 21.995,7.211 20.28,2.505 21.017,2.505 21.017,2.16 
	19.201,2.16 19.201,2.505 19.884,2.505 21.836,7.782 21.855,7.837 22.117,7.837 24.1,2.505 24.78,2.505 24.78,2.16 "/>
<polygon fill="#231F20" points="26.104,2.16 26.104,2.505 26.886,2.505 26.886,4.708 26.104,4.708 26.104,5.061 26.886,5.061 
	26.886,7.385 26.104,7.385 26.104,7.73 30,7.73 30,6.383 29.63,6.383 29.63,7.385 27.264,7.385 27.264,2.505 29.63,2.505 
	29.63,3.507 30,3.507 30,2.16 "/>
<path fill="#231F20" d="M8.46,7.438V2.559h0.92c0.919,0,1.513,0.484,1.513,1.232c0,0.758-0.517,1.207-1.531,1.247l1.477,2.399H8.46z
	 M11.283,7.438l-1.334-2.11c0.835-0.188,1.328-0.756,1.328-1.536c0-0.929-0.772-1.578-1.881-1.578H7.302v0.346h0.78v4.879
	l-0.78-0.001v0.346h4.676V7.438L11.283,7.438z"/>
</svg>
