<?xml version="1.0" encoding="utf-8"?>
<!-- Generator: Adobe Illustrator 22.1.0, SVG Export Plug-In . SVG Version: 6.00 Build 0)  -->
<svg version="1.1" id="Layer_1" xmlns="http://www.w3.org/2000/svg" xmlns:xlink="http://www.w3.org/1999/xlink" x="0px" y="0px"
	 viewBox="0 0 10 10" style="enable-background:new 0 0 10 10;" xml:space="preserve">
<circle cx="5.1" cy="5" r="1.1"/>
<ellipse transform="matrix(0.7106 -0.7036 0.7036 0.7106 0.2221 5.9405)" cx="7.3" cy="2.7" rx="1.8" ry="0.7"/>
<ellipse transform="matrix(0.7106 -0.7036 0.7036 0.7106 -4.4306 3.8269)" cx="2.4" cy="7.3" rx="1.8" ry="0.7"/>
<ellipse transform="matrix(0.7036 -0.7106 0.7106 0.7036 -3.0601 7.2639)" cx="7.2" cy="7.3" rx="0.7" ry="1.8"/>
<ellipse transform="matrix(0.7071 -0.7071 0.7071 0.7071 -1.0412 2.7204)" cx="2.8" cy="2.6" rx="0.7" ry="1.9"/>
<ellipse transform="matrix(5.010015e-03 -1 1 5.010015e-03 3.2148 6.7951)" cx="5" cy="1.8" rx="1.8" ry="0.7"/>
<ellipse transform="matrix(5.010015e-03 -1 1 5.010015e-03 -3.253 13.1665)" cx="5" cy="8.2" rx="1.8" ry="0.7"/>
<ellipse transform="matrix(5.010015e-03 -1 1 5.010015e-03 3.3473 13.1108)" cx="8.3" cy="4.9" rx="0.7" ry="1.8"/>
<ellipse transform="matrix(5.010015e-03 -1 1 5.010015e-03 -3.1001 6.631)" cx="1.8" cy="4.9" rx="0.7" ry="1.8"/>
</svg>
