<?xml version="1.0" encoding="utf-8"?>
<!-- Generator: Adobe Illustrator 16.0.0, SVG Export Plug-In . SVG Version: 6.00 Build 0)  -->
<!DOCTYPE svg PUBLIC "-//W3C//DTD SVG 1.1//EN" "http://www.w3.org/Graphics/SVG/1.1/DTD/svg11.dtd">
<svg version="1.1" id="Layer_1" xmlns="http://www.w3.org/2000/svg" xmlns:xlink="http://www.w3.org/1999/xlink" x="0px" y="0px"
	 width="38.5px" height="38.375px" viewBox="-13.125 -15.875 38.5 38.375" enable-background="new -13.125 -15.875 38.5 38.375"
	 xml:space="preserve">
<g>
	<polygon fill="#231F20" points="6.341,4.299 5.934,5.005 7.69,5.005 6.452,2.854 4.85,5.631 8.772,5.631 6.452,1.606 3.766,6.258 
		9.856,6.258 6.452,0.354 2.677,6.882 10.947,6.882 6.452,-0.898 1.593,7.509 12.029,7.509 6.452,-2.149 0.872,7.509 1.167,7.509 
		6.452,-1.638 11.587,7.254 2.036,7.254 6.452,-0.389 10.505,6.627 3.12,6.627 6.452,0.864 9.415,6.003 4.208,6.003 6.452,2.117 
		8.33,5.375 5.292,5.375 6.452,3.365 7.249,4.75 6.375,4.75 6.563,4.426 	"/>
	<g>
		<g>
			<polygon fill="#231F20" points="7.571,16.387 7.571,16.753 8.372,16.753 6.539,21.756 4.717,16.753 5.499,16.753 5.499,16.387 
				3.569,16.387 3.569,16.753 4.295,16.753 6.369,22.364 6.392,22.422 6.67,22.422 8.775,16.753 9.501,16.753 9.501,16.387 			"/>
			<polygon fill="#231F20" points="7.832,-11.373 7.832,-10.264 5.535,-10.264 5.535,-15.452 6.381,-15.452 6.381,-15.819 
				5.133,-15.819 5.133,-10.264 4.303,-10.264 4.303,-9.897 8.226,-9.897 8.226,-11.373 			"/>
		</g>
		<g>
			<polygon fill="#231F20" points="-7.472,22.055 -9.398,16.867 -8.659,16.867 -8.659,16.5 -10.869,16.5 -10.869,16.867 
				-10.122,16.867 -12.057,22.055 -12.765,22.055 -12.765,22.422 -10.834,22.422 -10.834,22.055 -11.635,22.055 -9.76,17.005 
				-7.902,22.055 -8.687,22.055 -8.687,22.422 -6.756,22.422 -6.756,22.055 			"/>
			<polygon fill="#231F20" points="-7.472,-10.264 -9.398,-15.452 -8.659,-15.452 -8.659,-15.819 -10.869,-15.819 -10.869,-15.452 
				-10.122,-15.452 -12.057,-10.264 -12.765,-10.264 -12.765,-9.897 -10.834,-9.897 -10.834,-10.264 -11.635,-10.264 -9.76,-15.314 
				-7.902,-10.264 -8.687,-10.264 -8.687,-9.897 -6.756,-9.897 -6.756,-10.264 			"/>
			<path fill="#231F20" d="M-7.563,1.343l0.558-0.558l-0.284-0.284l-0.55,0.549c-0.52-0.486-1.21-0.781-1.982-0.781
				c-1.651,0-2.943,1.338-2.943,3.047c0,0.76,0.257,1.446,0.685,1.974l-0.558,0.56l0.284,0.282l0.55-0.549
				c0.52,0.486,1.21,0.782,1.982,0.782c1.651,0,2.943-1.339,2.943-3.049C-6.878,2.557-7.135,1.871-7.563,1.343z M-11.807,5.019
				c-0.345-0.457-0.547-1.044-0.547-1.702c0-1.528,1.088-2.681,2.533-2.681c0.675,0,1.271,0.255,1.717,0.68L-11.807,5.019z
				 M-9.821,5.998c-0.676,0-1.272-0.255-1.717-0.681l3.703-3.703c0.344,0.457,0.546,1.044,0.546,1.702
				C-7.289,4.846-8.378,5.998-9.821,5.998z"/>
		</g>
		<g>
			<polygon fill="#231F20" points="25.252,17.932 25.252,16.5 21.112,16.5 21.112,16.867 21.941,16.867 21.941,19.208 
				21.112,19.208 21.112,19.583 21.941,19.583 21.941,22.055 21.112,22.055 21.112,22.422 25.252,22.422 25.252,20.989 
				24.858,20.989 24.858,22.055 22.344,22.055 22.344,16.867 24.858,16.867 24.858,17.932 			"/>
			<path fill="#231F20" d="M23.007-12.561v0.367h1.852v0.369h-1.852v0.359h1.852v0.645c-0.616,0.485-1.289,0.731-2,0.731
				c-1.428,0-2.464-1.097-2.464-2.611c0-1.589,1.08-2.742,2.567-2.742c0.701,0,1.266,0.251,1.563,0.546h0.501
				c-0.307-0.474-1.068-0.922-2.055-0.922c-1.697,0.01-2.978,1.351-2.978,3.118c0,1.956,1.436,2.979,2.855,2.979
				c0.749,0,1.374-0.205,2.009-0.657v0.568h0.394v-2.75H23.007z"/>
			<path fill="#231F20" d="M24.93,5.911l-1.418-2.245c0.888-0.2,1.413-0.804,1.413-1.633c0-0.988-0.823-1.677-2-1.677h-2.228v0.367
				h0.83v5.188h-0.83v0.366h4.97V5.911H24.93z M21.93,5.911V0.723h0.978c0.978,0,1.607,0.515,1.607,1.311
				c0,0.807-0.551,1.283-1.627,1.325l1.567,2.553H21.93z"/>
		</g>
	</g>
</g>
</svg>
