<?xml version="1.0" encoding="utf-8"?>
<!-- Generator: Adobe Illustrator 16.0.0, SVG Export Plug-In . SVG Version: 6.00 Build 0)  -->
<!DOCTYPE svg PUBLIC "-//W3C//DTD SVG 1.1//EN" "http://www.w3.org/Graphics/SVG/1.1/DTD/svg11.dtd">
<svg version="1.1" id="Layer_1" xmlns="http://www.w3.org/2000/svg" xmlns:xlink="http://www.w3.org/1999/xlink" x="0px" y="0px"
	 width="12.375px" height="10.25px" viewBox="0.25 -2.25 12.375 10.25" enable-background="new 0.25 -2.25 12.375 10.25"
	 xml:space="preserve">
<polygon fill="#231F20" points="6.669,4.695 6.249,5.423 8.057,5.423 6.784,3.208 5.135,6.065 9.171,6.065 6.784,1.924 4.019,6.711 
	10.287,6.711 6.784,0.635 2.898,7.354 11.41,7.354 6.784,-0.653 1.783,8 12.524,8 6.784,-1.94 1.04,8 1.344,8 6.784,-1.415 
	12.067,7.738 2.239,7.738 6.784,-0.129 10.955,7.092 3.353,7.092 6.784,1.161 9.832,6.448 4.475,6.448 6.784,2.449 8.717,5.804 
	5.59,5.804 6.784,3.734 7.604,5.159 6.704,5.159 6.897,4.827 "/>
</svg>
