<?xml version="1.0" encoding="utf-8"?>
<!-- Generator: Adobe Illustrator 16.0.0, SVG Export Plug-In . SVG Version: 6.00 Build 0)  -->
<!DOCTYPE svg PUBLIC "-//W3C//DTD SVG 1.1//EN" "http://www.w3.org/Graphics/SVG/1.1/DTD/svg11.dtd">
<svg version="1.1" id="Layer_1" xmlns="http://www.w3.org/2000/svg" xmlns:xlink="http://www.w3.org/1999/xlink" x="0px" y="0px"
	 width="20px" height="20px" viewBox="0 0 20 20" enable-background="new 0 0 20 20" xml:space="preserve">
<path d="M9.99,0C4.473,0,0,4.473,0,9.991c0,0.002,2.992,0.003,6.658,0.004c0.058,3.98,2.987,8.988,2.987,8.988
	s2.93-5.007,2.989-8.988c3.974,0,7.348-0.002,7.348-0.004C19.981,4.473,15.509,0,9.99,0z M5.684,8.271
	c-1.395,0-2.524-1.131-2.524-2.525c0-1.394,1.129-2.523,2.524-2.523s2.523,1.13,2.523,2.523C8.207,7.14,7.078,8.271,5.684,8.271z
	 M13.695,8.32c-1.395,0-2.523-1.13-2.523-2.525c0-1.394,1.129-2.523,2.523-2.523s2.523,1.13,2.523,2.523
	C16.219,7.19,15.09,8.32,13.695,8.32z"/>
</svg>
