<?xml version="1.0" encoding="UTF-8"?>
<svg xmlns="http://www.w3.org/2000/svg" xmlns:xlink="http://www.w3.org/1999/xlink" enable-background="new -13.125 -15.875 38.5 38.375" height="38.375px" id="Layer_1" version="1.1" viewBox="-13.125 -15.875 38.5 38.375" width="38.5px" x="0px" xml:space="preserve" y="0px">
  <polygon fill="#231F20" points="6.341,4.299 5.934,5.005 7.69,5.005 6.452,2.854 4.85,5.631 8.772,5.631 6.452,1.606 3.766,6.258    9.856,6.258 6.452,0.354 2.677,6.882 10.947,6.882 6.452,-0.898 1.593,7.509 12.029,7.509 6.452,-2.149 0.872,7.509 1.167,7.509    6.452,-1.638 11.587,7.254 2.036,7.254 6.452,-0.389 10.505,6.627 3.12,6.627 6.452,0.864 9.415,6.003 4.208,6.003 6.452,2.117    8.33,5.375 5.292,5.375 6.452,3.365 7.249,4.75 6.375,4.75 6.563,4.426  "/>
</svg>
