<?xml version="1.0" encoding="UTF-8"?>
<svg xmlns="http://www.w3.org/2000/svg" xmlns:xlink="http://www.w3.org/1999/xlink" enable-background="new -13.125 -15.875 38.5 38.375" height="38.375px" id="Layer_1" version="1.1" viewBox="-13.125 -15.875 38.5 38.375" width="38.5px" x="0px" xml:space="preserve" y="0px">
  <path d="M-7.563,1.343l0.558-0.558l-0.284-0.284l-0.55,0.549c-0.52-0.486-1.21-0.781-1.982-0.781     c-1.651,0-2.943,1.338-2.943,3.047c0,0.76,0.257,1.446,0.685,1.974l-0.558,0.56l0.284,0.282l0.55-0.549     c0.52,0.486,1.21,0.782,1.982,0.782c1.651,0,2.943-1.339,2.943-3.049C-6.878,2.557-7.135,1.871-7.563,1.343z M-11.807,5.019     c-0.345-0.457-0.547-1.044-0.547-1.702c0-1.528,1.088-2.681,2.533-2.681c0.675,0,1.271,0.255,1.717,0.68L-11.807,5.019z      M-9.821,5.998c-0.676,0-1.272-0.255-1.717-0.681l3.703-3.703c0.344,0.457,0.546,1.044,0.546,1.702     C-7.289,4.846-8.378,5.998-9.821,5.998z" fill="#231F20"/>
</svg>
