<?xml version="1.0" encoding="UTF-8"?>
<svg xmlns="http://www.w3.org/2000/svg" xmlns:xlink="http://www.w3.org/1999/xlink" enable-background="new 0 0 10 10" height="10px" id="Layer_1" version="1.1" viewBox="0 0 10 10" width="10px" x="0px" xml:space="preserve" y="0px">
  <path d="M5.002,0C2.24,0,0,2.24,0,5.002l2.562,0.185L5.016,10l2.402-4.812L10,5.002C10,2.24,7.76,0,5.002,0z M3.38,4.405  c-0.581,0-1.05-0.47-1.05-1.05c0-0.58,0.47-1.05,1.05-1.05c0.58,0,1.05,0.47,1.05,1.05C4.431,3.935,3.96,4.405,3.38,4.405z   M6.57,4.454c-0.608,0-1.1-0.492-1.1-1.1c0-0.607,0.492-1.1,1.1-1.1c0.607,0,1.1,0.492,1.1,1.1C7.67,3.962,7.178,4.454,6.57,4.454z"/>
</svg>
